<svg width="30" height="30" viewBox="0 0 30 30" fill="none" xmlns="http://www.w3.org/2000/svg">
  <g clip-path="url(#clip0_298_3784)">
    <path d="M24.6448 0H5.35553C5.2141 0 5.07846 0.0561832 4.97846 0.15619C4.87845 0.256197 4.82227 0.391835 4.82227 0.533266V29.4667C4.82223 29.5368 4.836 29.6061 4.86278 29.6708C4.88956 29.7355 4.92883 29.7943 4.97834 29.8438C5.02786 29.8934 5.08664 29.9326 5.15134 29.9594C5.21604 29.9862 5.28539 30 5.35541 30H24.6447C24.7147 30 24.7841 29.9862 24.8488 29.9594C24.9135 29.9326 24.9722 29.8933 25.0217 29.8438C25.0713 29.7943 25.1105 29.7355 25.1373 29.6708C25.1641 29.6061 25.1779 29.5368 25.1779 29.4667V0.533266C25.1779 0.463247 25.1641 0.393909 25.1373 0.329212C25.1106 0.264514 25.0713 0.205726 25.0218 0.156204C24.9723 0.106683 24.9135 0.067399 24.8489 0.040597C24.7842 0.013795 24.7148 -6.85129e-09 24.6448 0ZM5.88868 1.29809L14.4669 4.45984V25.54L5.88868 28.7018V1.29809ZM24.1116 28.9336H8.34396L15.1846 26.4123C15.2869 26.3746 15.3752 26.3064 15.4375 26.2169C15.4999 26.1275 15.5333 26.0211 15.5333 25.912V4.0881C15.5333 3.97905 15.4999 3.87262 15.4375 3.78316C15.3751 3.6937 15.2869 3.62549 15.1846 3.58772L8.34408 1.06641H24.1116V28.9336Z" fill="white" />
    <path d="M12.7355 13.1512C11.9754 13.1512 11.3799 13.9633 11.3799 15.0002C11.3799 16.0369 11.9754 16.8491 12.7355 16.8491C13.4957 16.8491 14.0911 16.037 14.0911 15.0002C14.0911 13.9633 13.4957 13.1512 12.7355 13.1512ZM12.7354 15.7823C12.6659 15.7651 12.4463 15.4949 12.4463 15.0002C12.4463 14.5055 12.6659 14.2353 12.7354 14.2179C12.805 14.2355 13.0247 14.506 13.0247 15.0002C13.0247 15.4942 12.805 15.7648 12.7354 15.7823Z" fill="white" />
  </g>
  <defs>
    <clipPath id="clip0_298_3784">
      <rect width="30" height="30" fill="white" />
    </clipPath>
  </defs>
</svg>