<svg width="25" height="24" viewBox="0 0 25 24" fill="none" xmlns="http://www.w3.org/2000/svg">
<g clip-path="url(#clip0_1407_1408)">
<path d="M12.578 1.60004H1.84961V22.4H22.6496V1.60004H12.578ZM5.86364 2.25686H8.56403V11.6716H5.86364V2.25686ZM2.50643 2.25686H5.20682V11.6716H2.50643V2.25686ZM11.9212 21.7432H2.50643V19.0428H11.9212V21.7432H11.9212ZM11.9212 18.386H2.50643V15.6856H11.9212V18.386H11.9212ZM11.9212 15.0288H2.50643V12.3284H11.9212V15.0288H11.9212ZM11.9212 4.95725V11.6716H9.22081V2.25686H11.9212V4.95725ZM15.2784 21.7432H12.578V12.3285H15.2784V21.7432ZM18.6356 21.7432H15.9352V12.3284H18.6356V21.7432ZM21.9928 21.7432H19.2924V12.3284H21.9928V21.7432ZM21.9928 11.6716H12.5781V8.97124H21.9928V11.6716ZM21.9928 8.31441H12.578V5.61407H21.9927V8.31441H21.9928ZM21.9928 4.95725H12.578V2.25686H21.9927V4.95725H21.9928Z" fill="white"/>
</g>
<defs>
<clipPath id="clip0_1407_1408">
<rect width="20.8" height="20.8" fill="white" transform="translate(1.84961 1.60004)"/>
</clipPath>
</defs>
</svg>
