<svg width="8" height="12" viewBox="0 0 8 12" fill="none" xmlns="http://www.w3.org/2000/svg">
<path d="M4.4 7.888H2.56C2.56 7.46133 2.656 7.06133 2.848 6.688C3.04 6.304 3.27467 5.97867 3.552 5.712C3.82933 5.43467 4.10667 5.17333 4.384 4.928C4.66133 4.672 4.896 4.39467 5.088 4.096C5.28 3.79733 5.376 3.49333 5.376 3.184C5.376 2.74667 5.22133 2.40533 4.912 2.16C4.60267 1.91467 4.18667 1.792 3.664 1.792C3.16267 1.792 2.73067 1.92 2.368 2.176C2.00533 2.432 1.744 2.79467 1.584 3.264L0 2.368C0.288 1.62133 0.762667 1.04 1.424 0.624001C2.096 0.208 2.85867 0 3.712 0C4.672 0 5.49333 0.272 6.176 0.816C6.86933 1.36 7.216 2.112 7.216 3.072C7.216 3.50933 7.12 3.92533 6.928 4.32C6.736 4.71467 6.50133 5.05067 6.224 5.328C5.94667 5.60533 5.66933 5.87733 5.392 6.144C5.11467 6.4 4.88 6.67733 4.688 6.976C4.496 7.27467 4.4 7.57867 4.4 7.888ZM3.488 9.2C3.81867 9.2 4.10133 9.31733 4.336 9.552C4.57067 9.78667 4.688 10.0693 4.688 10.4C4.688 10.7307 4.57067 11.0133 4.336 11.248C4.10133 11.4827 3.81867 11.6 3.488 11.6C3.15733 11.6 2.87467 11.4827 2.64 11.248C2.40533 11.0133 2.288 10.7307 2.288 10.4C2.288 10.0693 2.4 9.78667 2.624 9.552C2.85867 9.31733 3.14667 9.2 3.488 9.2Z" fill="#201E20"/>
</svg>
