<svg width="30" height="30" viewBox="0 0 30 30" fill="none" xmlns="http://www.w3.org/2000/svg">
<path fill-rule="evenodd" clip-rule="evenodd" d="M22.1775 17.9343C21.8083 17.7337 19.9948 16.7624 19.6548 16.6253C19.3147 16.4883 19.0666 16.4171 18.8015 16.7813C18.5367 17.1443 17.7843 17.9578 17.5563 18.1986C17.3274 18.4395 17.107 18.4622 16.7377 18.261C16.3693 18.0608 15.1727 17.6217 13.7846 16.2978C12.7047 15.2675 11.9963 14.0183 11.7908 13.637C11.5853 13.2554 11.7894 13.061 11.9846 12.8823C12.1599 12.7211 12.3772 12.4599 12.5733 12.2494C12.769 12.0387 12.838 11.8858 12.9728 11.6414C13.1073 11.3973 13.0531 11.1769 12.9659 10.9868C12.8787 10.7974 12.1963 8.9333 11.9112 8.17508C11.6261 7.41686 11.3086 7.52958 11.0892 7.52085C10.8698 7.51348 10.6205 7.47255 10.3697 7.46323C10.119 7.45392 9.70801 7.5323 9.3498 7.89259C8.9912 8.25307 7.98579 9.11897 7.91657 10.9551C7.84716 12.79 9.12709 14.6139 9.30561 14.8692C9.48432 15.1253 11.7497 19.1038 15.5144 20.7402C19.2801 22.3759 19.2999 21.8771 19.9907 21.8404C20.6821 21.8044 22.249 21.0203 22.5955 20.1614C22.9418 19.3025 22.9694 18.5555 22.8814 18.3966C22.7932 18.2376 22.5464 18.1343 22.1775 17.9343ZM15.272 26.7791C12.7823 26.7791 10.4633 26.038 8.52701 24.7678L3.81555 26.2644L5.34693 21.7467C3.87929 19.741 3.01232 17.2766 3.01232 14.6139C3.01232 7.90559 8.51215 2.4479 15.272 2.4479C22.033 2.4479 27.5326 7.90559 27.5326 14.6139C27.5326 21.3218 22.033 26.7791 15.272 26.7791ZM15.272 0C7.13876 0 0.545134 6.54262 0.545134 14.6139C0.545134 17.3748 1.31728 19.9571 2.65821 22.1598L0 30L8.15375 27.4101C10.2639 28.5674 12.6902 29.2276 15.272 29.2276C23.4066 29.2276 30 22.6842 30 14.6139C30 6.54262 23.4066 0 15.272 0Z" fill="white"/>
</svg>
